<?xml version="1.0" encoding="UTF-8" standalone="no"?>
<!-- Generator: Adobe Illustrator 21.1.0, SVG Export Plug-In . SVG Version: 6.00 Build 0)  -->

<svg
   xmlns:dc="http://purl.org/dc/elements/1.1/"
   xmlns:cc="http://creativecommons.org/ns#"
   xmlns:rdf="http://www.w3.org/1999/02/22-rdf-syntax-ns#"
   xmlns:svg="http://www.w3.org/2000/svg"
   xmlns="http://www.w3.org/2000/svg"
   xmlns:sodipodi="http://sodipodi.sourceforge.net/DTD/sodipodi-0.dtd"
   xmlns:inkscape="http://www.inkscape.org/namespaces/inkscape"
   version="1.1"
   id="Layer_1"
   x="0px"
   y="0px"
   viewBox="0 0 300 300"
   xml:space="preserve"
   sodipodi:docname="instagram.svg"
   inkscape:version="0.92.3 (2405546, 2018-03-11)"
   width="300"
   height="300"><metadata
   id="metadata15"><rdf:RDF><cc:Work
       rdf:about=""><dc:format>image/svg+xml</dc:format><dc:type
         rdf:resource="http://purl.org/dc/dcmitype/StillImage" /><dc:title /></cc:Work></rdf:RDF></metadata><defs
   id="defs13" /><sodipodi:namedview
   pagecolor="#ffffff"
   bordercolor="#666666"
   borderopacity="1"
   objecttolerance="10"
   gridtolerance="10"
   guidetolerance="10"
   inkscape:pageopacity="0"
   inkscape:pageshadow="2"
   inkscape:window-width="1850"
   inkscape:window-height="1016"
   id="namedview11"
   showgrid="false"
   inkscape:zoom="1.5451593"
   inkscape:cx="61.441506"
   inkscape:cy="121.90521"
   inkscape:window-x="70"
   inkscape:window-y="27"
   inkscape:window-maximized="1"
   inkscape:current-layer="Layer_1"
   fit-margin-top="0"
   fit-margin-left="0"
   fit-margin-right="0"
   fit-margin-bottom="0" />
<style
   type="text/css"
   id="style2">
	.st0{fill:none;}
</style>
<g
   id="g8"
   transform="matrix(5.5762083,0,0,5.6179774,1.1152417,-0.56179948)">
	<rect
   x="-0.2"
   y="0.1"
   class="st0"
   width="53.799999"
   height="53.400002"
   id="rect4"
   style="fill:none" />
	<path
   d="m 48.1,26.3 c 0,4.3 0,7.2 -0.1,8.8 -0.2,3.9 -1.3,6.9 -3.5,9 -2.2,2.1 -5.1,3.3 -9,3.5 -1.6,0.1 -4.6,0.1 -8.8,0.1 -4.3,0 -7.2,0 -8.8,-0.1 C 14,47.4 11,46.3 8.9,44.1 6.8,42 5.6,39 5.4,35.1 5.3,33.5 5.3,30.5 5.3,26.3 c 0,-4.2 0,-7.2 0.1,-8.8 0.2,-3.9 1.3,-6.9 3.5,-9 2.1,-2.1 5.1,-3.3 9,-3.5 1.6,-0.1 4.6,-0.1 8.8,-0.1 4.3,0 7.2,0 8.8,0.1 3.9,0.2 6.9,1.3 9,3.5 2.1,2.2 3.3,5.1 3.5,9 0,1.6 0.1,4.5 0.1,8.8 z M 28.8,8.7 c -1.3,0 -2,0 -2.1,0 -0.1,0 -0.8,0 -2.1,0 -1.3,0 -2.3,0 -2.9,0 -0.7,0 -1.6,0 -2.7,0.1 -1.1,0 -2.1,0.1 -2.9,0.3 -0.8,0.1 -1.5,0.3 -2,0.5 -0.9,0.4 -1.7,0.9 -2.5,1.6 -0.7,0.7 -1.2,1.5 -1.6,2.5 -0.2,0.5 -0.4,1.2 -0.5,2 -0.1,0.8 -0.2,1.7 -0.3,2.9 0,1.1 -0.1,2 -0.1,2.7 0,0.7 0,1.7 0,2.9 0,1.3 0,2 0,2.1 0,0.1 0,0.8 0,2.1 0,1.3 0,2.3 0,2.9 0,0.7 0,1.6 0.1,2.7 0,1.1 0.1,2.1 0.3,2.9 0.2,0.8 0.3,1.5 0.5,2 0.4,0.9 0.9,1.7 1.6,2.5 0.7,0.7 1.5,1.2 2.5,1.6 0.5,0.2 1.2,0.4 2,0.5 0.8,0.1 1.7,0.2 2.9,0.3 1.2,0.1 2,0.1 2.7,0.1 0.7,0 1.7,0 2.9,0 1.3,0 2,0 2.1,0 0.1,0 0.8,0 2.1,0 1.3,0 2.3,0 2.9,0 0.7,0 1.6,0 2.7,-0.1 1.1,0 2.1,-0.1 2.9,-0.3 0.8,-0.1 1.5,-0.3 2,-0.5 0.9,-0.4 1.7,-0.9 2.5,-1.6 0.7,-0.7 1.2,-1.5 1.6,-2.5 0.2,-0.5 0.4,-1.2 0.5,-2 0.1,-0.8 0.2,-1.7 0.3,-2.9 0,-1.1 0.1,-2 0.1,-2.7 0,-0.7 0,-1.7 0,-2.9 0,-1.3 0,-2 0,-2.1 0,-0.1 0,-0.8 0,-2.1 0,-1.3 0,-2.3 0,-2.9 0,-0.7 0,-1.6 -0.1,-2.7 0,-1.1 -0.1,-2.1 -0.3,-2.9 -0.1,-0.8 -0.3,-1.5 -0.5,-2 C 43,12.8 42.5,12 41.8,11.2 41.1,10.5 40.3,10 39.3,9.6 38.8,9.4 38.1,9.2 37.3,9.1 36.5,9 35.6,8.9 34.4,8.8 c -1.1,0 -2,-0.1 -2.7,-0.1 -0.6,0 -1.6,0 -2.9,0 z m 5.6,9.8 c 2.1,2.1 3.2,4.7 3.2,7.8 0,3.1 -1.1,5.6 -3.2,7.8 -2.1,2.1 -4.7,3.2 -7.8,3.2 -3.1,0 -5.6,-1.1 -7.8,-3.2 -2.1,-2.1 -3.2,-4.7 -3.2,-7.8 0,-3.1 1.1,-5.6 3.2,-7.8 2.1,-2.1 4.7,-3.2 7.8,-3.2 3.1,0 5.7,1 7.8,3.2 z m -2.7,12.8 c 1.4,-1.4 2.1,-3.1 2.1,-5 0,-1.9 -0.7,-3.7 -2.1,-5.1 -1.4,-1.4 -3.1,-2.1 -5.1,-2.1 -2,0 -3.7,0.7 -5.1,2.1 -1.4,1.4 -2.1,3.1 -2.1,5.1 0,2 0.7,3.7 2.1,5 1.4,1.4 3.1,2.1 5.1,2.1 2,0 3.7,-0.7 5.1,-2.1 z M 39.9,13 c 0.5,0.5 0.8,1.1 0.8,1.8 0,0.7 -0.3,1.3 -0.8,1.8 -0.5,0.5 -1.1,0.8 -1.8,0.8 -0.7,0 -1.3,-0.3 -1.8,-0.8 -0.5,-0.5 -0.8,-1.1 -0.8,-1.8 0,-0.7 0.3,-1.3 0.8,-1.8 0.5,-0.5 1.1,-0.8 1.8,-0.8 0.7,0 1.3,0.3 1.8,0.8 z"
   id="path6"
   style="fill:#ffffff"
   inkscape:connector-curvature="0" />
</g>
</svg>