<?xml version="1.0" encoding="UTF-8" standalone="no"?>
<!-- Generator: Adobe Illustrator 21.1.0, SVG Export Plug-In . SVG Version: 6.00 Build 0)  -->

<svg
   xmlns:dc="http://purl.org/dc/elements/1.1/"
   xmlns:cc="http://creativecommons.org/ns#"
   xmlns:rdf="http://www.w3.org/1999/02/22-rdf-syntax-ns#"
   xmlns:svg="http://www.w3.org/2000/svg"
   xmlns="http://www.w3.org/2000/svg"
   xmlns:sodipodi="http://sodipodi.sourceforge.net/DTD/sodipodi-0.dtd"
   xmlns:inkscape="http://www.inkscape.org/namespaces/inkscape"
   version="1.1"
   id="Layer_1"
   x="0px"
   y="0px"
   viewBox="0 0 54 54"
   style="enable-background:new 0 0 54 54;"
   xml:space="preserve"
   sodipodi:docname="instagram.svg"
   inkscape:version="0.92.3 (2405546, 2018-03-11)"><metadata
   id="metadata15"><rdf:RDF><cc:Work
       rdf:about=""><dc:format>image/svg+xml</dc:format><dc:type
         rdf:resource="http://purl.org/dc/dcmitype/StillImage" /></cc:Work></rdf:RDF></metadata><defs
   id="defs13" /><sodipodi:namedview
   pagecolor="#ffffff"
   bordercolor="#666666"
   borderopacity="1"
   objecttolerance="10"
   gridtolerance="10"
   guidetolerance="10"
   inkscape:pageopacity="0"
   inkscape:pageshadow="2"
   inkscape:window-width="1850"
   inkscape:window-height="1016"
   id="namedview11"
   showgrid="false"
   inkscape:zoom="4.3703704"
   inkscape:cx="27"
   inkscape:cy="27"
   inkscape:window-x="70"
   inkscape:window-y="27"
   inkscape:window-maximized="1"
   inkscape:current-layer="g8" />
<style
   type="text/css"
   id="style2">
	.st0{fill:none;}
</style>
<g
   id="g8">
	<rect
   x="-0.2"
   y="0.1"
   class="st0"
   width="53.8"
   height="53.4"
   id="rect4" />
	<path
   d="M48.1,26.3c0,4.3,0,7.2-0.1,8.8c-0.2,3.9-1.3,6.9-3.5,9s-5.1,3.3-9,3.5c-1.6,0.1-4.6,0.1-8.8,0.1c-4.3,0-7.2,0-8.8-0.1   c-3.9-0.2-6.9-1.3-9-3.5c-2.1-2.1-3.3-5.1-3.5-9c-0.1-1.6-0.1-4.6-0.1-8.8s0-7.2,0.1-8.8c0.2-3.9,1.3-6.9,3.5-9   c2.1-2.1,5.1-3.3,9-3.5c1.6-0.1,4.6-0.1,8.8-0.1c4.3,0,7.2,0,8.8,0.1c3.9,0.2,6.9,1.3,9,3.5s3.3,5.1,3.5,9   C48,19.1,48.1,22,48.1,26.3z M28.8,8.7c-1.3,0-2,0-2.1,0c-0.1,0-0.8,0-2.1,0c-1.3,0-2.3,0-2.9,0c-0.7,0-1.6,0-2.7,0.1   c-1.1,0-2.1,0.1-2.9,0.3c-0.8,0.1-1.5,0.3-2,0.5c-0.9,0.4-1.7,0.9-2.5,1.6c-0.7,0.7-1.2,1.5-1.6,2.5c-0.2,0.5-0.4,1.2-0.5,2   s-0.2,1.7-0.3,2.9c0,1.1-0.1,2-0.1,2.7c0,0.7,0,1.7,0,2.9c0,1.3,0,2,0,2.1s0,0.8,0,2.1c0,1.3,0,2.3,0,2.9c0,0.7,0,1.6,0.1,2.7   c0,1.1,0.1,2.1,0.3,2.9s0.3,1.5,0.5,2c0.4,0.9,0.9,1.7,1.6,2.5c0.7,0.7,1.5,1.2,2.5,1.6c0.5,0.2,1.2,0.4,2,0.5   c0.8,0.1,1.7,0.2,2.9,0.3s2,0.1,2.7,0.1c0.7,0,1.7,0,2.9,0c1.3,0,2,0,2.1,0c0.1,0,0.8,0,2.1,0c1.3,0,2.3,0,2.9,0   c0.7,0,1.6,0,2.7-0.1c1.1,0,2.1-0.1,2.9-0.3c0.8-0.1,1.5-0.3,2-0.5c0.9-0.4,1.7-0.9,2.5-1.6c0.7-0.7,1.2-1.5,1.6-2.5   c0.2-0.5,0.4-1.2,0.5-2c0.1-0.8,0.2-1.7,0.3-2.9c0-1.1,0.1-2,0.1-2.7c0-0.7,0-1.7,0-2.9c0-1.3,0-2,0-2.1s0-0.8,0-2.1   c0-1.3,0-2.3,0-2.9c0-0.7,0-1.6-0.1-2.7c0-1.1-0.1-2.1-0.3-2.9c-0.1-0.8-0.3-1.5-0.5-2c-0.4-0.9-0.9-1.7-1.6-2.5   c-0.7-0.7-1.5-1.2-2.5-1.6c-0.5-0.2-1.2-0.4-2-0.5c-0.8-0.1-1.7-0.2-2.9-0.3c-1.1,0-2-0.1-2.7-0.1C31.1,8.7,30.1,8.7,28.8,8.7z    M34.4,18.5c2.1,2.1,3.2,4.7,3.2,7.8s-1.1,5.6-3.2,7.8c-2.1,2.1-4.7,3.2-7.8,3.2c-3.1,0-5.6-1.1-7.8-3.2c-2.1-2.1-3.2-4.7-3.2-7.8   s1.1-5.6,3.2-7.8c2.1-2.1,4.7-3.2,7.8-3.2C29.7,15.3,32.3,16.3,34.4,18.5z M31.7,31.3c1.4-1.4,2.1-3.1,2.1-5s-0.7-3.7-2.1-5.1   c-1.4-1.4-3.1-2.1-5.1-2.1c-2,0-3.7,0.7-5.1,2.1s-2.1,3.1-2.1,5.1s0.7,3.7,2.1,5c1.4,1.4,3.1,2.1,5.1,2.1   C28.6,33.4,30.3,32.7,31.7,31.3z M39.9,13c0.5,0.5,0.8,1.1,0.8,1.8c0,0.7-0.3,1.3-0.8,1.8c-0.5,0.5-1.1,0.8-1.8,0.8   s-1.3-0.3-1.8-0.8c-0.5-0.5-0.8-1.1-0.8-1.8c0-0.7,0.3-1.3,0.8-1.8c0.5-0.5,1.1-0.8,1.8-0.8S39.4,12.5,39.9,13z"
   id="path6"
   style="fill:#ffffff" />
</g>
</svg>